<svg xmlns="http://www.w3.org/2000/svg" viewBox="0 0 1116 1116" width="100%" height="100%">
  <!-- Background Circle -->
  <circle cx="558.0" cy="558.0" r="558.0" fill="#099862" />
  
  <!-- Rabbit Silhouette -->
  <path d="M 457.0 192.5 L 470.0 192.5 L 486.0 196.5 L 499.0 202.5 L 504.0 203.5 L 511.0 207.5 L 514.0 207.5 L 527.0 212.5 L 550.0 224.5 L 592.0 256.5 L 611.0 278.5 L 620.0 295.5 L 626.0 303.5 L 631.0 314.5 L 635.0 319.5 L 646.0 345.5 L 650.0 361.5 L 649.0 362.5 L 652.0 368.5 L 657.0 387.5 L 659.0 389.5 L 693.0 380.5 L 731.0 379.5 L 732.0 380.5 L 746.0 381.5 L 766.0 387.5 L 769.0 389.5 L 774.0 390.5 L 776.0 392.5 L 782.0 393.5 L 810.0 406.5 L 838.0 425.5 L 869.0 451.5 L 879.0 461.5 L 885.0 469.5 L 890.0 479.5 L 894.0 495.5 L 894.0 511.5 L 889.0 534.5 L 884.0 547.5 L 874.0 567.5 L 863.0 581.5 L 845.0 596.5 L 842.0 600.5 L 820.0 616.5 L 794.0 632.5 L 773.0 641.5 L 733.0 668.5 L 701.0 697.5 L 684.0 718.5 L 675.0 732.5 L 668.0 751.5 L 668.0 756.5 L 667.0 757.5 L 667.0 782.5 L 668.0 785.5 L 674.0 796.5 L 679.0 801.5 L 688.0 806.5 L 706.0 812.5 L 714.0 819.5 L 715.0 822.5 L 718.0 825.5 L 720.0 833.5 L 720.0 839.5 L 719.0 840.5 L 704.0 841.5 L 703.0 842.5 L 700.0 841.5 L 690.0 843.5 L 685.0 842.5 L 684.0 843.5 L 664.0 844.5 L 663.0 843.5 L 653.0 842.5 L 645.0 839.5 L 640.0 836.5 L 633.0 829.5 L 601.0 784.5 L 596.0 774.5 L 586.0 764.5 L 577.0 758.5 L 563.0 752.5 L 541.0 752.5 L 533.0 754.5 L 530.0 756.5 L 546.0 765.5 L 555.0 772.5 L 570.0 794.5 L 573.0 801.5 L 575.0 811.5 L 574.0 827.5 L 571.0 833.5 L 571.0 836.5 L 565.0 842.5 L 559.0 842.5 L 558.0 843.5 L 478.0 843.5 L 477.0 844.5 L 476.0 843.5 L 465.0 843.5 L 464.0 844.5 L 463.0 843.5 L 455.0 843.5 L 454.0 844.5 L 453.0 843.5 L 451.0 844.5 L 450.0 843.5 L 440.0 843.5 L 439.0 844.5 L 438.0 843.5 L 431.0 843.5 L 430.0 844.5 L 429.0 843.5 L 428.0 844.5 L 330.0 844.5 L 325.0 843.5 L 317.0 840.5 L 309.0 833.5 L 297.0 807.5 L 294.0 796.5 L 293.0 784.5 L 292.0 783.5 L 292.0 772.5 L 291.0 771.5 L 292.0 756.5 L 293.0 755.5 L 292.0 754.5 L 292.0 748.5 L 293.0 747.5 L 293.0 738.5 L 294.0 737.5 L 296.0 719.5 L 300.0 709.5 L 298.0 707.5 L 294.0 710.5 L 282.0 723.5 L 277.0 734.5 L 274.0 749.5 L 271.0 756.5 L 267.0 755.5 L 262.0 750.5 L 256.0 741.5 L 252.0 748.5 L 250.0 750.5 L 248.0 749.5 L 241.0 737.5 L 239.0 724.5 L 243.0 710.5 L 242.0 709.5 L 235.0 710.5 L 234.0 707.5 L 240.0 693.5 L 246.0 685.5 L 245.0 683.5 L 242.0 682.5 L 242.0 680.5 L 251.0 675.5 L 269.0 674.5 L 271.0 666.5 L 277.0 666.5 L 288.0 671.5 L 292.0 668.5 L 295.0 653.5 L 297.0 649.5 L 297.0 645.5 L 305.0 627.5 L 308.0 617.5 L 316.0 602.5 L 337.0 572.5 L 360.0 550.5 L 378.0 537.5 L 411.0 522.5 L 428.0 517.5 L 458.0 514.5 L 466.0 512.5 L 504.0 512.5 L 505.0 513.5 L 514.0 513.5 L 532.0 517.5 L 547.0 518.5 L 557.0 521.5 L 561.0 521.5 L 575.0 525.5 L 584.0 529.5 L 600.0 533.5 L 611.0 538.5 L 615.0 539.5 L 617.0 538.5 L 617.0 529.5 L 615.0 524.5 L 614.0 513.5 L 601.0 473.5 L 598.0 471.5 L 571.0 470.5 L 540.0 462.5 L 534.0 459.5 L 519.0 455.5 L 510.0 450.5 L 508.0 450.5 L 506.0 448.5 L 476.0 435.5 L 444.0 413.5 L 434.0 403.5 L 418.0 390.5 L 403.0 375.5 L 394.0 361.5 L 381.0 345.5 L 382.0 343.5 L 387.0 341.5 L 397.0 339.5 L 405.0 339.5 L 410.0 337.5 L 429.0 336.5 L 430.0 335.5 L 473.0 335.5 L 502.0 341.5 L 530.0 352.5 L 551.0 362.5 L 564.0 370.5 L 575.0 378.5 L 616.0 418.5 L 619.0 420.5 L 620.0 419.5 L 618.0 409.5 L 610.0 395.5 L 610.0 393.5 L 596.0 374.5 L 555.0 333.5 L 523.0 315.5 L 510.0 302.5 L 492.0 276.5 L 485.0 269.5 L 470.0 243.5 L 469.0 237.5 L 466.0 232.5 L 465.0 226.5 L 458.0 208.5 L 457.0 196.5 L 456.0 195.5 L 457.0 192.5 Z" fill="#ffffff" />
</svg>
